<mxfile host="app.diagrams.net" modified="2023-12-03T12:42:38.309Z" agent="Mozilla/5.0 (Macintosh; Intel Mac OS X 10_15_7) AppleWebKit/605.1.15 (KHTML, like Gecko) Version/17.1.2 Safari/605.1.15" etag="5mIaiIX1scavTUKID4Pc" version="22.1.5" type="device">
  <diagram name="Page-1" id="vQP9hLYBUp4dAKwmtIgp">
    <mxGraphModel dx="1020" dy="680" grid="1" gridSize="10" guides="1" tooltips="1" connect="1" arrows="1" fold="1" page="1" pageScale="1" pageWidth="827" pageHeight="1169" math="0" shadow="0">
      <root>
        <mxCell id="0" />
        <mxCell id="1" parent="0" />
        <mxCell id="AIXgzcjw58ZIXvBcZ5kv-121" style="edgeStyle=orthogonalEdgeStyle;rounded=0;orthogonalLoop=1;jettySize=auto;html=1;entryX=0.5;entryY=0;entryDx=0;entryDy=0;" edge="1" parent="1" source="AIXgzcjw58ZIXvBcZ5kv-119" target="AIXgzcjw58ZIXvBcZ5kv-120">
          <mxGeometry relative="1" as="geometry" />
        </mxCell>
        <mxCell id="AIXgzcjw58ZIXvBcZ5kv-119" value="Start" style="ellipse;whiteSpace=wrap;html=1;" vertex="1" parent="1">
          <mxGeometry x="380" y="40" width="59" height="40" as="geometry" />
        </mxCell>
        <mxCell id="AIXgzcjw58ZIXvBcZ5kv-124" style="edgeStyle=orthogonalEdgeStyle;rounded=0;orthogonalLoop=1;jettySize=auto;html=1;entryX=0.5;entryY=0;entryDx=0;entryDy=0;" edge="1" parent="1" source="AIXgzcjw58ZIXvBcZ5kv-120" target="AIXgzcjw58ZIXvBcZ5kv-123">
          <mxGeometry relative="1" as="geometry" />
        </mxCell>
        <mxCell id="AIXgzcjw58ZIXvBcZ5kv-120" value="Declare&lt;br&gt;Variables and Arrays" style="rounded=0;whiteSpace=wrap;html=1;" vertex="1" parent="1">
          <mxGeometry x="339.25" y="130" width="140.5" height="60" as="geometry" />
        </mxCell>
        <mxCell id="AIXgzcjw58ZIXvBcZ5kv-127" style="edgeStyle=orthogonalEdgeStyle;rounded=0;orthogonalLoop=1;jettySize=auto;html=1;entryX=0.5;entryY=0;entryDx=0;entryDy=0;" edge="1" parent="1" source="AIXgzcjw58ZIXvBcZ5kv-123" target="AIXgzcjw58ZIXvBcZ5kv-125">
          <mxGeometry relative="1" as="geometry" />
        </mxCell>
        <mxCell id="AIXgzcjw58ZIXvBcZ5kv-123" value="Input&lt;br&gt;Size &amp;amp; Elements of array1&lt;br&gt;Size &amp;amp; Elements of array2" style="shape=parallelogram;perimeter=parallelogramPerimeter;whiteSpace=wrap;html=1;fixedSize=1;" vertex="1" parent="1">
          <mxGeometry x="314.25" y="240" width="190.5" height="70" as="geometry" />
        </mxCell>
        <mxCell id="AIXgzcjw58ZIXvBcZ5kv-128" style="edgeStyle=orthogonalEdgeStyle;rounded=0;orthogonalLoop=1;jettySize=auto;html=1;" edge="1" parent="1" source="AIXgzcjw58ZIXvBcZ5kv-125" target="AIXgzcjw58ZIXvBcZ5kv-126">
          <mxGeometry relative="1" as="geometry" />
        </mxCell>
        <mxCell id="AIXgzcjw58ZIXvBcZ5kv-125" value="Merge&lt;br&gt;array1 and array2 into mergedArray" style="rounded=0;whiteSpace=wrap;html=1;" vertex="1" parent="1">
          <mxGeometry x="339.25" y="360" width="140.5" height="60" as="geometry" />
        </mxCell>
        <mxCell id="AIXgzcjw58ZIXvBcZ5kv-131" style="edgeStyle=orthogonalEdgeStyle;rounded=0;orthogonalLoop=1;jettySize=auto;html=1;entryX=1;entryY=0.5;entryDx=0;entryDy=0;" edge="1" parent="1" source="AIXgzcjw58ZIXvBcZ5kv-126" target="AIXgzcjw58ZIXvBcZ5kv-129">
          <mxGeometry relative="1" as="geometry" />
        </mxCell>
        <mxCell id="AIXgzcjw58ZIXvBcZ5kv-126" value="Initialise&lt;br&gt;index variables i, j and k to 0" style="rounded=0;whiteSpace=wrap;html=1;" vertex="1" parent="1">
          <mxGeometry x="339.25" y="470" width="140.5" height="60" as="geometry" />
        </mxCell>
        <mxCell id="AIXgzcjw58ZIXvBcZ5kv-133" style="edgeStyle=orthogonalEdgeStyle;rounded=0;orthogonalLoop=1;jettySize=auto;html=1;entryX=0.5;entryY=0;entryDx=0;entryDy=0;" edge="1" parent="1" source="AIXgzcjw58ZIXvBcZ5kv-129" target="AIXgzcjw58ZIXvBcZ5kv-132">
          <mxGeometry relative="1" as="geometry" />
        </mxCell>
        <mxCell id="AIXgzcjw58ZIXvBcZ5kv-129" value="While&lt;br&gt;i &amp;lt; size1 and j &amp;lt; size2" style="shape=process;whiteSpace=wrap;html=1;backgroundOutline=1;" vertex="1" parent="1">
          <mxGeometry x="50" y="470" width="190.5" height="60" as="geometry" />
        </mxCell>
        <mxCell id="AIXgzcjw58ZIXvBcZ5kv-135" style="edgeStyle=orthogonalEdgeStyle;rounded=0;orthogonalLoop=1;jettySize=auto;html=1;entryX=0;entryY=0.5;entryDx=0;entryDy=0;" edge="1" parent="1" source="AIXgzcjw58ZIXvBcZ5kv-132" target="AIXgzcjw58ZIXvBcZ5kv-134">
          <mxGeometry relative="1" as="geometry" />
        </mxCell>
        <mxCell id="AIXgzcjw58ZIXvBcZ5kv-141" value="Yes" style="edgeLabel;html=1;align=center;verticalAlign=middle;resizable=0;points=[];" vertex="1" connectable="0" parent="AIXgzcjw58ZIXvBcZ5kv-135">
          <mxGeometry x="-0.1396" y="-2" relative="1" as="geometry">
            <mxPoint as="offset" />
          </mxGeometry>
        </mxCell>
        <mxCell id="AIXgzcjw58ZIXvBcZ5kv-140" style="edgeStyle=orthogonalEdgeStyle;rounded=0;orthogonalLoop=1;jettySize=auto;html=1;entryX=0;entryY=0.5;entryDx=0;entryDy=0;" edge="1" parent="1" source="AIXgzcjw58ZIXvBcZ5kv-132" target="AIXgzcjw58ZIXvBcZ5kv-138">
          <mxGeometry relative="1" as="geometry">
            <Array as="points">
              <mxPoint x="145" y="760" />
            </Array>
          </mxGeometry>
        </mxCell>
        <mxCell id="AIXgzcjw58ZIXvBcZ5kv-142" value="No" style="edgeLabel;html=1;align=center;verticalAlign=middle;resizable=0;points=[];" vertex="1" connectable="0" parent="AIXgzcjw58ZIXvBcZ5kv-140">
          <mxGeometry x="0.2529" y="1" relative="1" as="geometry">
            <mxPoint as="offset" />
          </mxGeometry>
        </mxCell>
        <mxCell id="AIXgzcjw58ZIXvBcZ5kv-132" value="If&lt;br&gt;array1[i] &amp;lt; array2[i]" style="rhombus;whiteSpace=wrap;html=1;" vertex="1" parent="1">
          <mxGeometry x="67.88" y="585" width="154.75" height="110" as="geometry" />
        </mxCell>
        <mxCell id="AIXgzcjw58ZIXvBcZ5kv-137" style="edgeStyle=orthogonalEdgeStyle;rounded=0;orthogonalLoop=1;jettySize=auto;html=1;entryX=0;entryY=0.5;entryDx=0;entryDy=0;" edge="1" parent="1" source="AIXgzcjw58ZIXvBcZ5kv-134" target="AIXgzcjw58ZIXvBcZ5kv-136">
          <mxGeometry relative="1" as="geometry" />
        </mxCell>
        <mxCell id="AIXgzcjw58ZIXvBcZ5kv-134" value="Copy&lt;br&gt;array1[i] to mergedArray[k]" style="rounded=0;whiteSpace=wrap;html=1;" vertex="1" parent="1">
          <mxGeometry x="294" y="610" width="120" height="60" as="geometry" />
        </mxCell>
        <mxCell id="AIXgzcjw58ZIXvBcZ5kv-146" style="edgeStyle=orthogonalEdgeStyle;rounded=0;orthogonalLoop=1;jettySize=auto;html=1;" edge="1" parent="1" source="AIXgzcjw58ZIXvBcZ5kv-136" target="AIXgzcjw58ZIXvBcZ5kv-145">
          <mxGeometry relative="1" as="geometry" />
        </mxCell>
        <mxCell id="AIXgzcjw58ZIXvBcZ5kv-136" value="Increment i" style="rounded=0;whiteSpace=wrap;html=1;" vertex="1" parent="1">
          <mxGeometry x="479.75" y="610" width="120" height="60" as="geometry" />
        </mxCell>
        <mxCell id="AIXgzcjw58ZIXvBcZ5kv-143" style="edgeStyle=orthogonalEdgeStyle;rounded=0;orthogonalLoop=1;jettySize=auto;html=1;" edge="1" parent="1" source="AIXgzcjw58ZIXvBcZ5kv-138" target="AIXgzcjw58ZIXvBcZ5kv-139">
          <mxGeometry relative="1" as="geometry" />
        </mxCell>
        <mxCell id="AIXgzcjw58ZIXvBcZ5kv-138" value="Copy&lt;br&gt;array2[j] to mergedArray[k]" style="rounded=0;whiteSpace=wrap;html=1;" vertex="1" parent="1">
          <mxGeometry x="294" y="730" width="120" height="60" as="geometry" />
        </mxCell>
        <mxCell id="AIXgzcjw58ZIXvBcZ5kv-147" style="edgeStyle=orthogonalEdgeStyle;rounded=0;orthogonalLoop=1;jettySize=auto;html=1;" edge="1" parent="1" source="AIXgzcjw58ZIXvBcZ5kv-139">
          <mxGeometry relative="1" as="geometry">
            <mxPoint x="620" y="510" as="targetPoint" />
          </mxGeometry>
        </mxCell>
        <mxCell id="AIXgzcjw58ZIXvBcZ5kv-139" value="Increment j" style="rounded=0;whiteSpace=wrap;html=1;" vertex="1" parent="1">
          <mxGeometry x="479.75" y="730" width="120" height="60" as="geometry" />
        </mxCell>
        <mxCell id="AIXgzcjw58ZIXvBcZ5kv-149" style="edgeStyle=orthogonalEdgeStyle;rounded=0;orthogonalLoop=1;jettySize=auto;html=1;entryX=0;entryY=0.5;entryDx=0;entryDy=0;" edge="1" parent="1" source="AIXgzcjw58ZIXvBcZ5kv-145" target="AIXgzcjw58ZIXvBcZ5kv-148">
          <mxGeometry relative="1" as="geometry">
            <Array as="points">
              <mxPoint x="620" y="335" />
              <mxPoint x="570" y="335" />
              <mxPoint x="570" y="280" />
            </Array>
          </mxGeometry>
        </mxCell>
        <mxCell id="AIXgzcjw58ZIXvBcZ5kv-145" value="Copy&lt;br&gt;remaining elements of array1 to mergedArray" style="rounded=0;whiteSpace=wrap;html=1;" vertex="1" parent="1">
          <mxGeometry x="550" y="360" width="140.5" height="60" as="geometry" />
        </mxCell>
        <mxCell id="AIXgzcjw58ZIXvBcZ5kv-151" style="edgeStyle=orthogonalEdgeStyle;rounded=0;orthogonalLoop=1;jettySize=auto;html=1;" edge="1" parent="1" source="AIXgzcjw58ZIXvBcZ5kv-148" target="AIXgzcjw58ZIXvBcZ5kv-150">
          <mxGeometry relative="1" as="geometry">
            <Array as="points">
              <mxPoint x="705" y="340" />
              <mxPoint x="741" y="340" />
            </Array>
          </mxGeometry>
        </mxCell>
        <mxCell id="AIXgzcjw58ZIXvBcZ5kv-148" value="While&lt;br&gt;i &amp;lt; size1" style="shape=process;whiteSpace=wrap;html=1;backgroundOutline=1;" vertex="1" parent="1">
          <mxGeometry x="610" y="250" width="190.5" height="60" as="geometry" />
        </mxCell>
        <mxCell id="AIXgzcjw58ZIXvBcZ5kv-153" style="edgeStyle=orthogonalEdgeStyle;rounded=0;orthogonalLoop=1;jettySize=auto;html=1;entryX=0.5;entryY=0;entryDx=0;entryDy=0;" edge="1" parent="1" source="AIXgzcjw58ZIXvBcZ5kv-150" target="AIXgzcjw58ZIXvBcZ5kv-152">
          <mxGeometry relative="1" as="geometry" />
        </mxCell>
        <mxCell id="AIXgzcjw58ZIXvBcZ5kv-150" value="Copy&lt;br&gt;array1[i] to mergedArray[k]" style="rounded=0;whiteSpace=wrap;html=1;" vertex="1" parent="1">
          <mxGeometry x="680.5" y="450" width="120" height="60" as="geometry" />
        </mxCell>
        <mxCell id="AIXgzcjw58ZIXvBcZ5kv-155" style="edgeStyle=orthogonalEdgeStyle;rounded=0;orthogonalLoop=1;jettySize=auto;html=1;entryX=0.5;entryY=0;entryDx=0;entryDy=0;" edge="1" parent="1" source="AIXgzcjw58ZIXvBcZ5kv-152" target="AIXgzcjw58ZIXvBcZ5kv-154">
          <mxGeometry relative="1" as="geometry" />
        </mxCell>
        <mxCell id="AIXgzcjw58ZIXvBcZ5kv-152" value="Increment j and k" style="rounded=0;whiteSpace=wrap;html=1;" vertex="1" parent="1">
          <mxGeometry x="680.5" y="585" width="120" height="60" as="geometry" />
        </mxCell>
        <mxCell id="AIXgzcjw58ZIXvBcZ5kv-157" style="edgeStyle=orthogonalEdgeStyle;rounded=0;orthogonalLoop=1;jettySize=auto;html=1;entryX=1;entryY=0.5;entryDx=0;entryDy=0;" edge="1" parent="1" source="AIXgzcjw58ZIXvBcZ5kv-154" target="AIXgzcjw58ZIXvBcZ5kv-156">
          <mxGeometry relative="1" as="geometry">
            <Array as="points">
              <mxPoint x="741" y="880" />
            </Array>
          </mxGeometry>
        </mxCell>
        <mxCell id="AIXgzcjw58ZIXvBcZ5kv-154" value="Sort&lt;br&gt;mergedArray in ascending order" style="rounded=0;whiteSpace=wrap;html=1;" vertex="1" parent="1">
          <mxGeometry x="680.5" y="730" width="120" height="60" as="geometry" />
        </mxCell>
        <mxCell id="AIXgzcjw58ZIXvBcZ5kv-159" style="edgeStyle=orthogonalEdgeStyle;rounded=0;orthogonalLoop=1;jettySize=auto;html=1;entryX=0.5;entryY=0;entryDx=0;entryDy=0;" edge="1" parent="1" source="AIXgzcjw58ZIXvBcZ5kv-156" target="AIXgzcjw58ZIXvBcZ5kv-158">
          <mxGeometry relative="1" as="geometry" />
        </mxCell>
        <mxCell id="AIXgzcjw58ZIXvBcZ5kv-156" value="Display&lt;br&gt;the sorted array" style="shape=parallelogram;perimeter=parallelogramPerimeter;whiteSpace=wrap;html=1;fixedSize=1;" vertex="1" parent="1">
          <mxGeometry x="339.25" y="850" width="140.5" height="60" as="geometry" />
        </mxCell>
        <mxCell id="AIXgzcjw58ZIXvBcZ5kv-158" value="Stop" style="ellipse;whiteSpace=wrap;html=1;" vertex="1" parent="1">
          <mxGeometry x="380" y="970" width="59" height="40" as="geometry" />
        </mxCell>
      </root>
    </mxGraphModel>
  </diagram>
</mxfile>
